<?xml version="1.0" encoding="utf-8"?>
<!-- Generator: Adobe Illustrator 22.1.0, SVG Export Plug-In . SVG Version: 6.00 Build 0)  -->
<svg version="1.1" xmlns="http://www.w3.org/2000/svg" xmlns:xlink="http://www.w3.org/1999/xlink" x="0px" y="0px"
	 viewBox="0 0 2000 2000" style="enable-background:new 0 0 2000 2000;" xml:space="preserve">
<style type="text/css">
	.st0{fill:#FF8300;}
	.st1{opacity:0.1;}
	.st2{fill:#F4F4F4;}
	.st3{opacity:0.25;}
	.st4{opacity:0.19;}
	.st5{fill:#FFA84C;}
	.st6{fill:#3A3768;}
</style>
<g id="Layer_1">
	<g>
		<g>
			
				<image style="overflow:visible;opacity:0.5;" width="6009" height="6009" xlink:href="17511E95.png"  transform="matrix(0.24 0 0 0.24 278.88 207.84)">
			</image>
			<g>
				<circle class="st0" cx="1000" cy="928.9" r="661"/>
			</g>
		</g>
		<g>
			<g>
				<path class="st1" d="M1389.3,1698.7H678c-8.1,0-14.6-6.5-14.6-14.6v-1018c0-8.1,6.5-14.6,14.6-14.6h711.3
					c8.1,0,14.6,6.5,14.6,14.6v1018C1403.9,1692.1,1397.4,1698.7,1389.3,1698.7z"/>
				<path class="st2" d="M1364.8,1674.3H653.5c-8.1,0-14.6-6.5-14.6-14.6v-1018c0-8.1,6.5-14.6,14.6-14.6h711.3
					c8.1,0,14.6,6.5,14.6,14.6v1018C1379.4,1667.8,1372.8,1674.3,1364.8,1674.3z"/>
			</g>
			<g>
				<rect x="725.3" y="723.2" class="st3" width="308.2" height="64.9"/>
				<rect x="725.3" y="1034.6" class="st3" width="415.2" height="32.4"/>
				<g>
					<rect x="725.3" y="820.5" class="st4" width="567.7" height="22.7"/>
					<rect x="725.3" y="864.3" class="st4" width="567.7" height="22.7"/>
					<rect x="725.3" y="908.1" class="st4" width="567.7" height="22.7"/>
				</g>
				<rect x="725.3" y="1093" class="st4" width="567.7" height="22.7"/>
				<rect x="725.3" y="1136.8" class="st4" width="567.7" height="22.7"/>
				<rect x="725.3" y="1268.2" class="st3" width="415.2" height="32.4"/>
				<rect x="725.3" y="1326.6" class="st4" width="567.7" height="22.7"/>
				<rect x="725.3" y="1370.4" class="st4" width="567.7" height="22.7"/>
				<rect x="725.3" y="1412.7" class="st4" width="567.7" height="22.7"/>
				<rect x="725.3" y="1455" class="st4" width="567.7" height="22.7"/>
				<rect x="1109.6" y="1581.9" class="st4" width="183.3" height="22.7"/>
			</g>
		</g>
		<g>
			<g>
				<circle class="st5" cx="1269.4" cy="354.2" r="99.2"/>
			</g>
			<g>
				<circle class="st6" cx="933.1" cy="453.3" r="49.9"/>
			</g>
			<g>
				<circle class="st5" cx="464.1" cy="886.8" r="82.1"/>
			</g>
			<g>
				<circle class="st6" cx="1603.5" cy="1148.2" r="46.7"/>
			</g>
			<g>
				<circle class="st6" cx="435.5" cy="431.8" r="28.7"/>
			</g>
		</g>
	</g>
</g>
<g id="Layer_2">
</g>
</svg>
